<svg xmlns="http://www.w3.org/2000/svg" xmlns:xlink="http://www.w3.org/1999/xlink" viewBox="0 0 153.52 117.91"><defs><style>.cls-1{fill:url(#linear-gradient);}.cls-2{fill:url(#linear-gradient-2);}.cls-3{fill:url(#linear-gradient-3);}.cls-4{fill:url(#linear-gradient-4);}.cls-5{fill:url(#linear-gradient-5);}.cls-6{fill:url(#linear-gradient-6);}.cls-7{fill:url(#linear-gradient-7);}.cls-8{fill:url(#linear-gradient-8);}.cls-9{fill:url(#linear-gradient-9);}.cls-10{fill:url(#linear-gradient-10);}.cls-11{fill:url(#linear-gradient-11);}.cls-12{fill:url(#linear-gradient-12);}.cls-13{fill:url(#linear-gradient-13);}</style><linearGradient id="linear-gradient" x1="24.1" y1="41.51" x2="129.42" y2="41.51" gradientUnits="userSpaceOnUse"><stop offset="0" stop-color="#4c37ea"/><stop offset="1" stop-color="#4fed90"/></linearGradient><linearGradient id="linear-gradient-2" x1="46.47" y1="30.74" x2="55.14" y2="30.74" gradientUnits="userSpaceOnUse"><stop offset="0" stop-color="#ce4988"/><stop offset="0.68" stop-color="#d9616d"/></linearGradient><linearGradient id="linear-gradient-3" x1="57.39" y1="30.74" x2="66.06" y2="30.74" xlink:href="#linear-gradient-2"/><linearGradient id="linear-gradient-4" x1="87.9" y1="48.21" x2="96.57" y2="48.21" xlink:href="#linear-gradient-2"/><linearGradient id="linear-gradient-5" x1="98.42" y1="48.21" x2="107.09" y2="48.21" xlink:href="#linear-gradient-2"/><linearGradient id="linear-gradient-6" x1="59.62" y1="109.54" x2="125.53" y2="111.73" gradientUnits="userSpaceOnUse"><stop offset="0" stop-color="#4c37ea" stop-opacity="0.8"/><stop offset="1" stop-color="#4fed90"/></linearGradient><linearGradient id="linear-gradient-7" x1="59.64" y1="108.87" x2="125.56" y2="111.06" xlink:href="#linear-gradient-6"/><linearGradient id="linear-gradient-8" x1="59.64" y1="108.23" x2="125.52" y2="110.41" xlink:href="#linear-gradient-6"/><linearGradient id="linear-gradient-9" x1="59.67" y1="107.48" x2="125.55" y2="109.67" xlink:href="#linear-gradient-6"/><linearGradient id="linear-gradient-10" x1="59.69" y1="106.85" x2="125.57" y2="109.04" xlink:href="#linear-gradient-6"/><linearGradient id="linear-gradient-11" x1="59.69" y1="106.27" x2="125.6" y2="108.46" xlink:href="#linear-gradient-6"/><linearGradient id="linear-gradient-12" x1="59.71" y1="105.51" x2="125.61" y2="107.69" xlink:href="#linear-gradient-6"/><linearGradient id="linear-gradient-13" x1="59.74" y1="104.44" x2="125.64" y2="106.63" xlink:href="#linear-gradient-6"/></defs><title>netforum-svg</title><g id="Layer_2" data-name="Layer 2"><g id="Layer_1-2" data-name="Layer 1"><path class="cls-1" d="M125.67,64.19,128.83,83,110.3,78.21a30.05,30.05,0,0,1-11.55,2.3A30.6,30.6,0,0,1,71.3,63.16c2.46-1,7.91-3.87,10.78-9A16.33,16.33,0,0,0,97.26,64.72a16.57,16.57,0,0,0-.15-33.14,14.82,14.82,0,0,0-11.87,7.25,57.38,57.38,0,0,1-5,11.32A28.27,28.27,0,0,1,69.7,59.26a31.84,31.84,0,0,1-26,.94h0L24.86,65.92l2.71-20.38h0A30.9,30.9,0,0,1,24.1,31.26a31.6,31.6,0,0,1,59.2-15C75.84,19.52,73,23.1,72,24.86a16.58,16.58,0,0,0-15.5-11A16.75,16.75,0,0,0,39.92,30.84,16.75,16.75,0,0,0,56.47,47.78a14.88,14.88,0,0,0,11.71-5.63,74.64,74.64,0,0,0,4.8-10h0A31,31,0,0,1,85.2,20.71a31,31,0,0,1,13.55-2.89c16.94,0,30.67,14,30.67,31.35A31.61,31.61,0,0,1,125.67,64.19Z"/><path class="cls-2" d="M55.14,30.74a4.34,4.34,0,1,1-4.33-4.34A4.33,4.33,0,0,1,55.14,30.74Z"/><path class="cls-3" d="M66.06,30.74a4.34,4.34,0,1,1-4.33-4.34A4.33,4.33,0,0,1,66.06,30.74Z"/><path class="cls-4" d="M96.57,48.21a4.34,4.34,0,1,1-4.34-4.33A4.33,4.33,0,0,1,96.57,48.21Z"/><path class="cls-5" d="M107.09,48.21a4.34,4.34,0,1,1-4.33-4.33A4.33,4.33,0,0,1,107.09,48.21Z"/><path class="cls-6" d="M15.9,117.91.39,99.11l.14-.28,0,18.72H0V97.81H0l15.64,19-.27,0V98.11h.52v19.8Z"/><path class="cls-7" d="M22.51,98.11H34.12v.53h-11v8.83H33V108h-10v9H34.5v.53h-12Z"/><path class="cls-8" d="M38.33,98.11H51v.53h-6v18.91h-.56V98.64h-6Z"/><path class="cls-9" d="M55.49,97.53H67.37v2.57H58.18v6.37h8.06v2.58H58.18v8.5H55.49Z"/><path class="cls-10" d="M70.14,107.55a10.07,10.07,0,0,1,.79-3.93,10.46,10.46,0,0,1,5.46-5.51,10.15,10.15,0,0,1,7.9,0,10.53,10.53,0,0,1,3.29,2.23,10.34,10.34,0,0,1,2.22,3.28,10.08,10.08,0,0,1,0,7.92A10.32,10.32,0,0,1,84.32,117a10,10,0,0,1-4,.79,10.25,10.25,0,0,1-4-.77,10.42,10.42,0,0,1-3.26-2.18,10,10,0,0,1-3-7.27Zm2.77,0a7.68,7.68,0,0,0,.57,3A7.43,7.43,0,0,0,75.09,113a7.7,7.7,0,0,0,2.38,1.65,7.41,7.41,0,0,0,5.84,0A7.61,7.61,0,0,0,85.67,113a7.87,7.87,0,0,0,1.59-2.43,7.69,7.69,0,0,0,.58-3,7.77,7.77,0,0,0-.58-3,8.21,8.21,0,0,0-1.59-2.45,7.33,7.33,0,0,0-5.31-2.26,7.31,7.31,0,0,0-3,.61A7.67,7.67,0,0,0,75,102.15a7.54,7.54,0,0,0-1.56,2.45A8,8,0,0,0,72.91,107.55Z"/><path class="cls-11" d="M100.44,97.53a9.36,9.36,0,0,1,2.81.4,6.41,6.41,0,0,1,2.24,1.19,5.55,5.55,0,0,1,1.5,1.95,6.26,6.26,0,0,1,.54,2.66,8,8,0,0,1-.35,2.33,5.87,5.87,0,0,1-1.13,2.06,5.72,5.72,0,0,1-2.08,1.5,8.12,8.12,0,0,1-3.2.56h-3v7.37H95.12v-20Zm.27,10a4.82,4.82,0,0,0,2-.36,3.28,3.28,0,0,0,1.23-.93,3.85,3.85,0,0,0,.63-1.2,4.29,4.29,0,0,0,.2-1.25,3.94,3.94,0,0,0-.21-1.24,3.88,3.88,0,0,0-.66-1.21,3.57,3.57,0,0,0-1.19-.93,4.05,4.05,0,0,0-1.79-.36h-3.1v7.48Zm3.3,1.55,5.23,8.42h-3.1l-5.34-8.34Z"/><path class="cls-12" d="M115.78,110.46a4.59,4.59,0,0,0,.65,2.42,4.75,4.75,0,0,0,1.74,1.68,4.87,4.87,0,0,0,2.43.61,5.11,5.11,0,0,0,2.52-.61,4.51,4.51,0,0,0,1.73-1.68,4.76,4.76,0,0,0,.62-2.42V97.53h2.66v13a7.11,7.11,0,0,1-1,3.82,6.72,6.72,0,0,1-2.71,2.52,8.6,8.6,0,0,1-7.62,0,6.72,6.72,0,0,1-2.71-2.52,7.2,7.2,0,0,1-1-3.82v-13h2.69Z"/><path class="cls-13" d="M133.61,117.55V96.89h0l10.5,14.93-1.14-.25,10.5-14.68h0v20.66h-2.68V103l.19,1.36L143.5,115h-.06l-7.67-10.69.45-1.25v14.46Z"/></g></g></svg>